<?xml version="1.0" encoding="UTF-8"?>
<svg xmlns="http://www.w3.org/2000/svg" id="Layer_3" data-name="Layer 3" viewBox="0 0 64 64" width="512" height="512"><path d="M24.984,44.105A13.134,13.134,0,0,1,23.128,50.4c-.057.1-.127.182-.189.273l2.285,1.306a17.363,17.363,0,0,0,2.432-5.983A9.92,9.92,0,0,1,24.984,44.105Z"/><path d="M26,18a1.983,1.983,0,0,0,1.269-.456,4.566,4.566,0,0,1,0-3.088A2,2,0,1,0,26,18Z"/><path d="M21,21a2,2,0,0,0,2-2,2.044,2.044,0,0,0-.07-.468,3.973,3.973,0,0,1-.637-1.045A1.975,1.975,0,0,0,21,17a2,2,0,0,0,0,4Z"/><circle cx="32" cy="16" r="3"/><path d="M43,21a2,2,0,0,0,0-4,1.975,1.975,0,0,0-1.293.487,4,4,0,0,1-.636,1.045A1.945,1.945,0,0,0,43,21Z"/><path d="M32,11a4.942,4.942,0,0,1,1.544.269A1.979,1.979,0,0,0,34,10a2,2,0,0,0-4,0,1.979,1.979,0,0,0,.456,1.269A4.942,4.942,0,0,1,32,11Z"/><path d="M36.733,17.537a2,2,0,1,0,0-3.081,4.562,4.562,0,0,1,0,3.081Z"/><path d="M32,3A29,29,0,1,0,61,32,29.032,29.032,0,0,0,32,3ZM50.124,50.3a5.331,5.331,0,0,1-7.57,1.822L32.5,57.868a1,1,0,0,1-.992,0L21.446,52.121a5.331,5.331,0,0,1-7.57-1.822l-2.744-4.8A1,1,0,0,1,12,44a4,4,0,0,0,4-4,2.007,2.007,0,0,0-.4-1.2l-2.4-3.2A1,1,0,0,1,14,34a4,4,0,0,0,4-4V27.123a10.077,10.077,0,0,1,1.119-4.615,3.975,3.975,0,0,1,2.971-7.339,3.989,3.989,0,0,1,6.175-2.459,5.191,5.191,0,0,1,.445-.445,4,4,0,1,1,6.58,0,5.051,5.051,0,0,1,.445.445,3.989,3.989,0,0,1,6.175,2.459,3.979,3.979,0,0,1,2.971,7.339A10.08,10.08,0,0,1,46,27.123V30a4,4,0,0,0,4,4,1,1,0,0,1,.8,1.6l-2.4,3.2A2.012,2.012,0,0,0,48,40a4,4,0,0,0,4,4,1,1,0,0,1,.868,1.5Z"/><path d="M46,40a4.024,4.024,0,0,1,.8-2.4l1.406-1.874A6.011,6.011,0,0,1,44,30V27.123a8.075,8.075,0,0,0-1.159-4.139,4,4,0,0,1-3.752-3.154A3.922,3.922,0,0,1,38,20a4,4,0,0,1-2.268-.706,4.935,4.935,0,0,1-7.467,0A4,4,0,0,1,26,20a3.922,3.922,0,0,1-1.089-.17,4,4,0,0,1-3.752,3.154A8.075,8.075,0,0,0,20,27.123V30a6.011,6.011,0,0,1-4.206,5.726L17.2,37.6A4.024,4.024,0,0,1,18,40a6.011,6.011,0,0,1-4.4,5.784l2.012,3.523a3.362,3.362,0,0,0,5.8.061A11.138,11.138,0,0,0,23,43.638V32a9,9,0,0,1,18,0V43.638a11.138,11.138,0,0,0,1.587,5.73,3.362,3.362,0,0,0,5.8-.061L50.4,45.784A6.011,6.011,0,0,1,46,40Z"/><path d="M32,47a10.043,10.043,0,0,1-2.44-.315,19.379,19.379,0,0,1-2.595,6.286L32,55.848l5.035-2.877a19.379,19.379,0,0,1-2.595-6.286A10.043,10.043,0,0,1,32,47Z"/><path d="M39.016,44.105a9.92,9.92,0,0,1-2.672,1.888,17.363,17.363,0,0,0,2.432,5.983l2.285-1.306c-.062-.091-.132-.177-.189-.273A13.134,13.134,0,0,1,39.016,44.105Z"/><path d="M27,36a3.381,3.381,0,0,1-2-.659v5.511a7.98,7.98,0,0,0,14,0V35.341A3.392,3.392,0,0,1,34.586,35l-1.293-1.293,1.414-1.414L36,33.586a1.465,1.465,0,0,0,2,0l1-1V32a7.026,7.026,0,0,0-.08-1H34V29h4.315a6.985,6.985,0,0,0-12.63,0H30v2H25.08A7.026,7.026,0,0,0,25,32v.586l1,1a1.465,1.465,0,0,0,2,0l1.293-1.293,1.414,1.414L29.414,35A3.389,3.389,0,0,1,27,36Z"/></svg>
