<svg id="Glyph_line" height="512" viewBox="0 0 64 64" width="512" xmlns="http://www.w3.org/2000/svg" data-name="Glyph line"><g fill="rgb(0,0,0)"><path d="m19.41 38.58c0 .02-.03.32-.02.82a1.77059 1.77059 0 0 1 -1.22-1.42c-3.2-16.99 10.31-28.49 18.23-23.26-5.05.37006-7.14 3.22-7.23 3.35a.71336.71336 0 0 0 1.16.83c.09-.12 2.19-2.9 7.44-2.78a5.20252 5.20252 0 0 1 1.05 3.22c-.12 1.99-2.44 5.65-6.56 7.81994-.97.38006-12.37 5.02006-12.85 11.42006z"/><path d="m36.87 39.61a2.18507 2.18507 0 0 1 0-4.37 2.18507 2.18507 0 0 1 0 4.37z"/><path d="m27.12 35.24a2.18514 2.18514 0 0 0 0 4.37 2.18514 2.18514 0 0 0 0-4.37zm0 0a2.18514 2.18514 0 0 0 0 4.37 2.18514 2.18514 0 0 0 0-4.37zm13.43-3.41a17.52576 17.52576 0 0 0 -5.88-4.49 18.45365 18.45365 0 0 1 -1.85 1.13c-.28.08-13.32 5.35-11.96 11.64.24 2.38 1.5 6.8 7.25 9.65 3.95 1.88 9.27.54 12.85-4.01a11.37765 11.37765 0 0 0 -.41-13.92zm-17.04 5.6a3.61512 3.61512 0 0 1 7.23 0 3.61512 3.61512 0 0 1 -7.23 0zm11.64 8.21h-5.71a.71521.71521 0 0 1 0-1.43h5.71a.71507.71507 0 0 1 0 1.43zm1.72-4.59a3.62017 3.62017 0 0 1 0-7.24 3.62017 3.62017 0 0 1 0 7.24zm-9.75-5.81a2.18514 2.18514 0 0 0 0 4.37 2.18514 2.18514 0 0 0 0-4.37z"/><path d="m46.26 31.41a23.00406 23.00406 0 0 1 -.41 3.76 2.31957 2.31957 0 0 1 -1.45 1.7 13.795 13.795 0 0 0 -2.72-5.92 18.71413 18.71413 0 0 0 -5.74-4.58 11.48119 11.48119 0 0 0 4.14-6.01c2.09.76 4.83 2.76 4.51 8.12a.849.849 0 0 0 .26.6 2.71657 2.71657 0 0 1 1.41 2.33z"/><path d="m32 0a32 32 0 1 0 32 32 32.004 32.004 0 0 0 -32-32zm15.25 35.46a3.77788 3.77788 0 0 1 -2.67 2.86 12.95523 12.95523 0 0 1 -2.5 8.32 13.17958 13.17958 0 0 1 -10.47 5.39 9.33733 9.33733 0 0 1 -4.14-.99c-5.91-2.93-7.53-7.4-7.95-10.17a3.17187 3.17187 0 0 1 -2.77-2.67c-2.83-18.5 9.72-27.74 17.6-25.95a7.55212 7.55212 0 0 1 5.93 6.36 1.286 1.286 0 0 1 .02.31c2.18.73 5.95 2.91 5.72 9.26l.28.23c2.13 1.82 1.32 4.36.95 7.05z"/></g></svg>