<svg id="Glyph_line" height="512" viewBox="0 0 64 64" width="512" xmlns="http://www.w3.org/2000/svg" data-name="Glyph line"><g fill="rgb(0,0,0)"><path d="m28.22 27.89c0 .39.09 1-.48 1.02h-4.28c-.58-.02-.49005-.62-.48-1.02a.47615.47615 0 0 1 .46-.48h4.31a.48471.48471 0 0 1 .47.48z"/><path d="m30.92 25.98h-3.15c-1.85-.02-5.67 0-7.49 0a6.2949 6.2949 0 1 1 10.63995 0z"/><path d="m17.03 25.98a9.11834 9.11834 0 0 1 -.65-3.35c.51-12.23 17.93-12.22 18.43 0a9.10864 9.10864 0 0 1 -.64 3.35h-1.6a7.7353 7.7353 0 1 0 -13.94 0z"/><path d="m19.93 34.03a5.85109 5.85109 0 0 1 -5.85-5.85v-.77h7.53c-.04.15-.07 1.02-.07 1.02a1.91842 1.91842 0 0 0 1.92 1.91h4.28a1.91628 1.91628 0 0 0 1.91-1.91 3.84093 3.84093 0 0 0 -.07-1.02h7.54a5.95794 5.95794 0 0 1 -5.85 6.62z"/><path d="m48.26 13.67c-.59-.19-1.33.18-2.33 1.1-1.11 1.12005-1.28 2.15-1.1 2.33.18.17 1.21 0 2.32-1.11 1.12-1.11 1.28-2.14 1.11-2.32zm-4.13 10.03v3.56h4.96v-3.56zm0 0v3.56h4.96v-3.56zm3.02-7.71c1.12-1.11 1.28-2.14 1.11-2.32-.59-.19-1.33.18-2.33 1.1-1.11 1.12005-1.28 2.15-1.1 2.33.18.17 1.21 0 2.32-1.11zm-15.15-15.99a32 32 0 1 0 32 32 32.004 32.004 0 0 0 -32-32zm-19.35 28.18v-1.49a.71271.71271 0 0 1 .71-.71h2.13a10.82793 10.82793 0 0 1 -.54-3.35c.59-14.12 20.71-14.12 21.29 0a10.53966 10.53966 0 0 1 -.54 3.35h2.13a.71492.71492 0 0 1 .72.71v1.49a7.29359 7.29359 0 0 1 -7.28 7.28h-11.34a7.28715 7.28715 0 0 1 -7.28-7.28zm35.56 16.72a1.72 1.72 0 0 1 -1.72 1.72h-5.6a.71513.71513 0 0 1 0-1.43h5.6a.29023.29023 0 0 0 .29-.29c-.04-.4.16-1.1-.29-1.1h-7.97v2.14a1.7199 1.7199 0 0 1 -1.72 1.72h-2.28a1.87624 1.87624 0 0 0 -.77.17l-5.12 2.4a1.218 1.218 0 0 1 -1.17-.08 1.05992 1.05992 0 0 1 -.11-.09l-4.13 1.83a1.73209 1.73209 0 0 1 -2.27-.85 15.52023 15.52023 0 0 1 .02-12.79 1.74034 1.74034 0 0 1 2.26-.87l4.11 1.79a.37627.37627 0 0 1 .12-.1 1.19213 1.19213 0 0 1 1.17-.08l5.13 2.39c.5.31 2.46.13 3.04.18a1.69655 1.69655 0 0 1 1.45.81h8.24a1.71993 1.71993 0 0 1 1.72 1.72zm3.14-10.77a3.28615 3.28615 0 0 1 -3.29 3.29h-2.9a3.28618 3.28618 0 0 1 -3.29-3.29v-3.11a.715.715 0 0 1 1.43 0v3.11a1.8565 1.8565 0 0 0 1.86 1.86h2.9a1.85646 1.85646 0 0 0 1.86-1.86v-5.44h-7.34a.71887.71887 0 1 1 .12-1.43v-4.28a.722.722 0 0 1 .83-.71l.02-1.49a.71508.71508 0 1 1 1.43.02l-.02 1.47h3.31v-5.39a4.84318 4.84318 0 0 1 -3.22 1.7c-2.45-.18-2.05-2.92-.13-4.82 1.99-2.08 5.02-2.27 4.78.5.01.00995 0 8 0 8.01a.7323.7323 0 0 1 .83.71v4.28h.11a.71483.71483 0 0 1 .71.72zm-7.22-6.87h4.96v-3.56h-4.96zm4.13-13.59c-.59-.19-1.33.18-2.33 1.1-1.11 1.12005-1.28 2.15-1.1 2.33.18.17 1.21 0 2.32-1.11 1.12-1.11 1.28-2.14 1.11-2.32zm-11.46 29.32c-.93-.05-2.81.16-3.65-.31l-4.82-2.25v8.36l4.82-2.25a3.08685 3.08685 0 0 1 1.37-.31h2.28a.29022.29022 0 0 0 .29-.29v-2.66a.29023.29023 0 0 0 -.29-.29zm-14.53-4.14a13.9798 13.9798 0 0 0 -.01 11.59.27463.27463 0 0 0 .38.14l4.26-1.89v-.87l-2.6.66a1.10085 1.10085 0 0 1 -.18.02.71726.71726 0 0 1 -.17-1.41l2.95-.75v-1.02h-2.78a.715.715 0 0 1 0-1.43h2.78v-1.16l-2.94-.68a.71827.71827 0 0 1 .32-1.4l2.62.61v-.72l-4.24-1.85a.30575.30575 0 0 0 -.39.16z"/></g></svg>