<?xml version="1.0" encoding="UTF-8"?>
<svg xmlns="http://www.w3.org/2000/svg" id="Lingkaran_Glyph" data-name="Lingkaran Glyph" viewBox="0 0 64 64" width="512" height="512"><defs><style>.cls-1{fill:rgb(0,0,0);}</style></defs><path class="cls-1" d="M38.87,24.73a.72537.72537,0,0,0-.37-.54l-3.04-1.63a.68966.68966,0,0,0-.64-.02.7212.7212,0,0,0-.4.5L33.5,27.6a.724.724,0,0,1-.38.49l-3.94,2,9.35-.03a.75441.75441,0,0,1,.51.21l.61.62Zm0,0a.72537.72537,0,0,0-.37-.54l-3.04-1.63a.68966.68966,0,0,0-.64-.02.7212.7212,0,0,0-.4.5L33.5,27.6a.724.724,0,0,1-.38.49l-3.94,2,9.35-.03a.75441.75441,0,0,1,.51.21l.61.62Zm0,0a.72537.72537,0,0,0-.37-.54l-3.04-1.63a.68966.68966,0,0,0-.64-.02.7212.7212,0,0,0-.4.5L33.5,27.6a.724.724,0,0,1-.38.49l-3.94,2,9.35-.03a.75441.75441,0,0,1,.51.21l.61.62Zm0,0a.72537.72537,0,0,0-.37-.54l-3.04-1.63a.68966.68966,0,0,0-.64-.02.7212.7212,0,0,0-.4.5L33.5,27.6a.724.724,0,0,1-.38.49l-3.94,2,9.35-.03a.75441.75441,0,0,1,.51.21l.61.62Zm0,0a.72537.72537,0,0,0-.37-.54l-3.04-1.63a.68966.68966,0,0,0-.64-.02.7212.7212,0,0,0-.4.5L33.5,27.6a.724.724,0,0,1-.38.49l-3.94,2,9.35-.03a.75441.75441,0,0,1,.51.21l.61.62Zm0,0a.72537.72537,0,0,0-.37-.54l-3.04-1.63a.68966.68966,0,0,0-.64-.02.7212.7212,0,0,0-.4.5L33.5,27.6a.724.724,0,0,1-.38.49l-3.94,2,9.35-.03a.75441.75441,0,0,1,.51.21l.61.62Zm0,0a.72537.72537,0,0,0-.37-.54l-3.04-1.63a.68966.68966,0,0,0-.64-.02.7212.7212,0,0,0-.4.5L33.5,27.6a.724.724,0,0,1-.38.49l-3.94,2,9.35-.03a.75441.75441,0,0,1,.51.21l.61.62Zm0,0a.72537.72537,0,0,0-.37-.54l-3.04-1.63a.68966.68966,0,0,0-.64-.02.7212.7212,0,0,0-.4.5L33.5,27.6a.724.724,0,0,1-.38.49l-3.94,2,9.35-.03a.75441.75441,0,0,1,.51.21l.61.62Zm0,0a.72537.72537,0,0,0-.37-.54l-3.04-1.63a.68966.68966,0,0,0-.64-.02.7212.7212,0,0,0-.4.5L33.5,27.6a.724.724,0,0,1-.38.49l-3.94,2,9.35-.03a.75441.75441,0,0,1,.51.21l.61.62Zm0,0a.72537.72537,0,0,0-.37-.54l-3.04-1.63a.68966.68966,0,0,0-.64-.02.7212.7212,0,0,0-.4.5L33.5,27.6a.724.724,0,0,1-.38.49l-3.94,2,9.35-.03a.75441.75441,0,0,1,.51.21l.61.62Zm0,0a.72537.72537,0,0,0-.37-.54l-3.04-1.63a.68966.68966,0,0,0-.64-.02.7212.7212,0,0,0-.4.5L33.5,27.6a.724.724,0,0,1-.38.49l-3.94,2,9.35-.03a.75441.75441,0,0,1,.51.21l.61.62Zm0,0a.72537.72537,0,0,0-.37-.54l-3.04-1.63a.68966.68966,0,0,0-.64-.02.7212.7212,0,0,0-.4.5L33.5,27.6a.724.724,0,0,1-.38.49l-3.94,2,9.35-.03a.75441.75441,0,0,1,.51.21l.61.62ZM32,0A32,32,0,1,0,64,32,32.004,32.004,0,0,0,32,0Zm-.8,13.21a3.1,3.1,0,1,1-3.1,3.1A3.1027,3.1027,0,0,1,31.2,13.21ZM18.72,28.83a3.1,3.1,0,1,1-3.1,3.1A3.0963,3.0963,0,0,1,18.72,28.83Zm1.09,20.53a1.42763,1.42763,0,0,1-1.42,1.43H16.86a1.42973,1.42973,0,0,1-1.43-1.43V40.09h4.38Zm-6.38-10.7A1.42761,1.42761,0,0,1,12,37.24V35.03a1.42971,1.42971,0,0,1,1.43-1.43h1.08a4.38678,4.38678,0,0,0,.92,1.43,4.48234,4.48234,0,0,0,3.29,1.43,4.435,4.435,0,0,0,2.59-.82v1.45l-.07.15-.65,1.42Zm13.46-.71a.72959.72959,0,0,1-.25.55l-4.68,3.84a.70058.70058,0,0,1-.45.17.73128.73128,0,0,1-.44-.15.72159.72159,0,0,1-.21-.87l1.88-4.1V32.25a2.14475,2.14475,0,0,1,2.12-2.14h1.13l6.18-3.13.85-4.22a2.12709,2.12709,0,0,1,1.19-1.51,2.15,2.15,0,0,1,1.93.05l3.03,1.63a2.155,2.155,0,0,1,1.12,1.63l.86,6.82h7.33a.71274.71274,0,0,1,.71.71v2.22a.71491.71491,0,0,1-.71.72H26.89ZM48.57,49.36a1.42973,1.42973,0,0,1-1.43,1.43H45.61a1.42763,1.42763,0,0,1-1.42-1.43V40.09h4.38ZM52,37.24a1.42761,1.42761,0,0,1-1.43,1.42H41.02L39.33,43.2l1.11,4.64a.71953.71953,0,0,1-.53.86.98975.98975,0,0,1-.17.02.713.713,0,0,1-.69-.55l-1.16-4.85A.67245.67245,0,0,1,37.91,42.9l1.59-4.24H36.04l-2.78,3.77V48a.715.715,0,1,1-1.43,0V42.19a.7068.7068,0,0,1,.13995-.42l2.29-3.11H28.2a2.07478,2.07478,0,0,0,.12-.71V36.46H48.48a2.1328,2.1328,0,0,0,2.01-1.43,1.91668,1.91668,0,0,0,.13-.72V33.6A1.433,1.433,0,0,1,52,35.03ZM38.5,24.19l-3.04-1.63a.68966.68966,0,0,0-.64-.02.7212.7212,0,0,0-.4.5L33.5,27.6a.724.724,0,0,1-.38.49l-3.94,2,9.35-.03a.75441.75441,0,0,1,.51.21l.61.62-.78-6.16A.72537.72537,0,0,0,38.5,24.19Zm.37.54a.72537.72537,0,0,0-.37-.54l-3.04-1.63a.68966.68966,0,0,0-.64-.02.7212.7212,0,0,0-.4.5L33.5,27.6a.724.724,0,0,1-.38.49l-3.94,2,9.35-.03a.75441.75441,0,0,1,.51.21l.61.62Zm0,0a.72537.72537,0,0,0-.37-.54l-3.04-1.63a.68966.68966,0,0,0-.64-.02.7212.7212,0,0,0-.4.5L33.5,27.6a.724.724,0,0,1-.38.49l-3.94,2,9.35-.03a.75441.75441,0,0,1,.51.21l.61.62Zm0,0a.72537.72537,0,0,0-.37-.54l-3.04-1.63a.68966.68966,0,0,0-.64-.02.7212.7212,0,0,0-.4.5L33.5,27.6a.724.724,0,0,1-.38.49l-3.94,2,9.35-.03a.75441.75441,0,0,1,.51.21l.61.62Zm0,0a.72537.72537,0,0,0-.37-.54l-3.04-1.63a.68966.68966,0,0,0-.64-.02.7212.7212,0,0,0-.4.5L33.5,27.6a.724.724,0,0,1-.38.49l-3.94,2,9.35-.03a.75441.75441,0,0,1,.51.21l.61.62Zm0,0a.72537.72537,0,0,0-.37-.54l-3.04-1.63a.68966.68966,0,0,0-.64-.02.7212.7212,0,0,0-.4.5L33.5,27.6a.724.724,0,0,1-.38.49l-3.94,2,9.35-.03a.75441.75441,0,0,1,.51.21l.61.62Zm0,0a.72537.72537,0,0,0-.37-.54l-3.04-1.63a.68966.68966,0,0,0-.64-.02.7212.7212,0,0,0-.4.5L33.5,27.6a.724.724,0,0,1-.38.49l-3.94,2,9.35-.03a.75441.75441,0,0,1,.51.21l.61.62Zm0,0a.72537.72537,0,0,0-.37-.54l-3.04-1.63a.68966.68966,0,0,0-.64-.02.7212.7212,0,0,0-.4.5L33.5,27.6a.724.724,0,0,1-.38.49l-3.94,2,9.35-.03a.75441.75441,0,0,1,.51.21l.61.62Zm0,0a.72537.72537,0,0,0-.37-.54l-3.04-1.63a.68966.68966,0,0,0-.64-.02.7212.7212,0,0,0-.4.5L33.5,27.6a.724.724,0,0,1-.38.49l-3.94,2,9.35-.03a.75441.75441,0,0,1,.51.21l.61.62Zm0,0a.72537.72537,0,0,0-.37-.54l-3.04-1.63a.68966.68966,0,0,0-.64-.02.7212.7212,0,0,0-.4.5L33.5,27.6a.724.724,0,0,1-.38.49l-3.94,2,9.35-.03a.75441.75441,0,0,1,.51.21l.61.62Zm0,0a.72537.72537,0,0,0-.37-.54l-3.04-1.63a.68966.68966,0,0,0-.64-.02.7212.7212,0,0,0-.4.5L33.5,27.6a.724.724,0,0,1-.38.49l-3.94,2,9.35-.03a.75441.75441,0,0,1,.51.21l.61.62Zm0,0a.72537.72537,0,0,0-.37-.54l-3.04-1.63a.68966.68966,0,0,0-.64-.02.7212.7212,0,0,0-.4.5L33.5,27.6a.724.724,0,0,1-.38.49l-3.94,2,9.35-.03a.75441.75441,0,0,1,.51.21l.61.62Zm0,0a.72537.72537,0,0,0-.37-.54l-3.04-1.63a.68966.68966,0,0,0-.64-.02.7212.7212,0,0,0-.4.5L33.5,27.6a.724.724,0,0,1-.38.49l-3.94,2,9.35-.03a.75441.75441,0,0,1,.51.21l.61.62Z"/></svg>
