<svg id="Glyph_Line" height="512" viewBox="0 0 64 64" width="512" xmlns="http://www.w3.org/2000/svg" data-name="Glyph Line"><path d="m17.53 33.83a2.50683 2.50683 0 0 0 3.54 3.55 2.50683 2.50683 0 0 0 -3.54-3.55z"/><path d="m27.78 30.19a4.23816 4.23816 0 0 1 -4.34.88l-2.14-.77a5.711 5.711 0 0 0 -7.72 5.4c.06 5.12 6.32 7.35 9.91 3.81l6.97-6.98-.81-4.07zm-5.71 8.19a3.92463 3.92463 0 0 1 -5.55-5.55 3.92463 3.92463 0 0 1 5.55 5.55z"/><path d="m30.16 42.93a2.50326 2.50326 0 0 0 -3.54 3.54 2.50326 2.50326 0 0 0 3.54-3.54z"/><path d="m32 0a32 32 0 1 0 32 32 32.004 32.004 0 0 0 -32-32zm-9.06 49.31a7.02133 7.02133 0 0 1 -1.57-5.01.72127.72127 0 0 1 .76-.66.712.712 0 0 1 .66.75 5.56729 5.56729 0 0 0 5.5 6.03 5.72427 5.72427 0 0 0 5.41-7.73l-.77-2.13a4.37194 4.37194 0 0 1 1.21-4.71.71133.71133 0 0 1 1.04.97 2.9507 2.9507 0 0 0 -.92 3.25s.77 2.11.77 2.13995a7.11833 7.11833 0 0 1 -12.09 7.10005zm2.68-7.38a3.921 3.921 0 0 1 5.55 5.54 3.921 3.921 0 0 1 -5.55-5.54zm26.03-22.88-14.21 15.33a.77037.77037 0 0 1 -.66.22l-5.31-1.07-6.98 6.98c-4.47 4.38-12.23 1.63-12.33-4.78a7.14431 7.14431 0 0 1 9.62-6.77l2.13995.77a2.80509 2.80509 0 0 0 2.9-.58l2.79-2.59.15-.09a.70666.70666 0 0 1 1.03.47l1.05 5.22 4.83.97 13.75005-14.84-.06-4.65-4.66-.06-13.05 12.09a.70778.70778 0 0 1 -.96-1.04l13.26-12.29a.71409.71409 0 0 1 .49-.19l5.63.08a.70665.70665 0 0 1 .69.7l.08 5.63a.64754.64754 0 0 1 -.19.49zm-15.78 8.07a.7109.7109 0 0 1 1.01 1 .7109.7109 0 0 1 -1.01-1z"/></svg>